<svg width="246" height="42" viewBox="0 0 246 42" fill="none" xmlns="http://www.w3.org/2000/svg">
<g filter="url(#filter0_d_221_103)">
<mask id="mask0_221_103" style="mask-type:luminance" maskUnits="userSpaceOnUse" x="0" y="0" width="246" height="42">
<path d="M246 0H0V41.1022H246V0Z" fill="white"/>
</mask>
<g mask="url(#mask0_221_103)">
<path d="M141.283 41.1022H139.245V35.7952H141.283C142.075 35.7952 142.641 36.0209 143.094 36.4727C143.547 36.9242 143.774 37.6017 143.774 38.3921C143.774 39.1825 143.547 39.86 143.094 40.3118C142.755 40.7636 142.075 41.1022 141.283 41.1022ZM140.264 36.6984V40.0861H141.283C141.736 40.0861 142.189 39.9729 142.415 39.6343C142.641 39.2957 142.868 38.8439 142.868 38.3921C142.868 37.9406 142.755 37.4888 142.415 37.1502C142.189 36.8113 141.736 36.6984 141.283 36.6984H140.264Z" fill="#878787"/>
<path d="M147.056 41.1022V35.7952H148.075V41.1022H147.056Z" fill="#878787"/>
<path d="M153.849 41.1022C153.057 41.1022 152.377 40.8765 151.811 40.3118C151.245 39.7472 151.019 39.1825 151.019 38.3921C151.019 37.6017 151.245 36.9242 151.811 36.3598C152.377 35.7952 153.057 35.5691 153.849 35.5691C154.302 35.5691 154.641 35.6823 155.094 35.7952C155.434 35.908 155.774 36.1338 156 36.4727L155.321 37.1502C154.868 36.6984 154.415 36.4727 153.849 36.4727C153.283 36.4727 152.944 36.6984 152.604 37.037C152.264 37.376 152.038 37.8278 152.038 38.2792C152.038 38.8439 152.151 39.1825 152.491 39.5214C152.83 39.86 153.283 40.0861 153.736 40.0861C154.076 40.0861 154.302 40.0861 154.528 39.9729C154.755 39.86 154.981 39.7472 155.207 39.5214V38.731H153.623V37.8278H156.113V39.9729C155.547 40.7636 154.755 41.1022 153.849 41.1022Z" fill="#878787"/>
<path d="M159.396 41.1022V35.7952H160.415V41.1022H159.396Z" fill="#878787"/>
<path d="M164.83 41.1022V36.6984H163.245V35.7952H167.321V36.6984H165.849V41.1022H164.83Z" fill="#878787"/>
<path d="M174 41.1022H172.981L172.528 39.86H170.604L170.151 41.1022H169.132L171.17 35.7952H171.962L174 41.1022ZM172.302 38.9568L171.623 37.1502L170.943 38.9568H172.302Z" fill="#878787"/>
<path d="M180.566 41.1022H176.83V35.7952H177.849V40.199H180.566V41.1022Z" fill="#878787"/>
<path d="M189.623 41.1022C188.83 41.1022 188.151 40.8765 187.698 40.3118C187.132 39.7472 186.906 39.1825 186.906 38.3921C186.906 37.6017 187.132 36.9242 187.698 36.3598C188.264 35.7952 188.943 35.5691 189.623 35.5691C190.075 35.5691 190.528 35.6823 190.981 35.908C191.434 36.1338 191.66 36.3598 192 36.6984L191.321 37.376C190.868 36.8113 190.415 36.5856 189.736 36.5856C189.283 36.5856 188.83 36.8113 188.491 37.1502C188.151 37.4888 187.924 37.9406 187.924 38.505C187.924 39.0696 188.038 39.4086 188.377 39.7472C188.717 40.0861 189.17 40.199 189.623 40.199C190.302 40.199 190.868 39.9729 191.208 39.4086L191.887 39.9729C191.66 40.3118 191.321 40.5376 190.868 40.7636C190.528 40.9894 190.075 41.1022 189.623 41.1022Z" fill="#878787"/>
<path d="M194.491 38.3921C194.491 37.6017 194.717 36.9241 195.283 36.4727C195.849 35.908 196.528 35.6823 197.207 35.6823C198 35.6823 198.679 35.908 199.132 36.4727C199.698 37.037 199.925 37.7145 199.925 38.3921C199.925 39.1825 199.698 39.7471 199.132 40.3118C198.566 40.8765 197.887 41.1022 197.207 41.1022C196.415 41.1022 195.736 40.8765 195.283 40.3118C194.717 39.86 194.491 39.1825 194.491 38.3921ZM199.019 38.3921C199.019 37.8277 198.792 37.4888 198.453 37.1502C198.113 36.8113 197.66 36.5855 197.207 36.5855C196.755 36.5855 196.302 36.8113 195.962 37.1502C195.623 37.4888 195.509 37.9406 195.509 38.3921C195.509 38.9567 195.623 39.2957 195.962 39.6343C196.302 39.9729 196.755 40.0861 197.207 40.0861C197.66 40.0861 198.113 39.9729 198.453 39.6343C198.906 39.2957 199.019 38.9567 199.019 38.3921Z" fill="#878787"/>
<path d="M204.113 41.1022H203.094V35.7952H203.66L205.811 38.8439L207.962 35.7952H208.642V41.1022H207.623V37.9406L206.038 40.3118H205.698L204.113 37.9406V41.1022Z" fill="#878787"/>
<path d="M213.057 41.1022H212.038V35.7952H212.604L214.755 38.8439L216.906 35.7952H217.585V41.1022H216.566V37.9406L214.981 40.3118H214.641L213.057 37.9406V41.1022Z" fill="#878787"/>
<path d="M224.491 41.1022H220.981V35.7952H224.491V36.6984H221.887V37.9406H224.264V38.8439H221.887V40.199H224.491V41.1022Z" fill="#878787"/>
<path d="M231.623 41.1022H230.491L229.245 39.0696H228.566V41.1022H227.547V35.7952H229.585C230.151 35.7952 230.604 35.908 230.943 36.2466C231.283 36.5856 231.396 36.9242 231.396 37.376C231.396 37.7146 231.283 38.0535 231.057 38.2792C230.83 38.505 230.604 38.731 230.264 38.8439L231.623 41.1022ZM229.585 36.6984H228.566V38.2792H229.472C229.811 38.2792 229.925 38.1664 230.151 38.0535C230.264 37.9406 230.377 37.7146 230.377 37.4888C230.377 37.2631 230.264 37.037 230.151 36.9242C230.038 36.6984 229.925 36.6984 229.585 36.6984Z" fill="#878787"/>
<path d="M237.057 41.1022C236.264 41.1022 235.585 40.8765 235.132 40.3118C234.566 39.7472 234.339 39.1825 234.339 38.3921C234.339 37.6017 234.566 36.9242 235.132 36.3598C235.698 35.7952 236.377 35.5691 237.057 35.5691C237.509 35.5691 237.962 35.6823 238.415 35.908C238.868 36.1338 239.094 36.3598 239.434 36.6984L238.755 37.376C238.302 36.8113 237.849 36.5856 237.17 36.5856C236.717 36.5856 236.264 36.8113 235.924 37.1502C235.585 37.4888 235.358 37.9406 235.358 38.505C235.358 39.0696 235.472 39.4086 235.811 39.7472C236.151 40.0861 236.604 40.199 237.057 40.199C237.736 40.199 238.302 39.9729 238.642 39.4086L239.321 39.9729C239.094 40.3118 238.755 40.5376 238.302 40.7636C237.962 40.9894 237.509 41.1022 237.057 41.1022Z" fill="#878787"/>
<path d="M245.887 41.1022H242.377V35.7952H245.887V36.6984H243.283V37.9406H245.66V38.8439H243.283V40.199H245.887V41.1022Z" fill="#878787"/>
<path d="M99.7361 11.1789L99.8493 10.3885C100.075 9.14641 101.094 8.13014 102.453 8.13014H103.925V28.6813C103.925 29.1329 103.359 29.3588 103.019 29.1329L99.7361 26.4229C97.8115 28.6813 95.434 29.8105 92.4905 29.8105C89.5473 29.8105 86.8302 28.6813 84.9056 26.5358C82.8681 24.3904 81.9624 21.6803 81.9624 18.5186C81.9624 15.3569 82.9813 12.7598 84.9056 10.6143C86.9434 8.58181 89.4341 7.45264 92.4905 7.45264C95.434 7.7914 97.8115 8.92057 99.7361 11.1789ZM93.0565 25.9712C94.9811 25.9712 96.6793 25.2937 98.0379 23.9387C99.2832 22.5837 99.9625 20.8899 99.9625 18.8574C99.9625 16.8249 99.2832 15.244 98.0379 13.7761C96.6793 12.4211 95.0944 11.7435 93.0565 11.7435C91.019 11.7435 89.4341 12.4211 88.0755 13.7761C86.8302 15.1311 86.1509 16.8249 86.1509 18.8574C86.1509 20.8899 86.8302 22.5837 88.0755 23.9387C89.4341 25.2937 91.019 25.9712 93.0565 25.9712Z" fill="#383838"/>
<path d="M152.151 11.1789L152.264 10.5014C152.491 9.25926 153.51 8.24299 154.868 8.24299H156.34V28.7941C156.34 29.2458 155.773 29.4716 155.434 29.2458L152.151 26.5357C150.226 28.7941 147.849 29.9233 144.906 29.9233C141.962 29.9233 139.245 28.7941 137.321 26.6487C135.283 24.5032 134.377 21.7932 134.377 18.6315C134.377 15.4697 135.396 12.8726 137.321 10.7272C139.358 8.69466 141.849 7.56549 144.906 7.56549C147.849 7.79132 150.226 8.92049 152.151 11.1789ZM145.472 25.9711C147.396 25.9711 149.094 25.2936 150.453 23.9386C151.698 22.5836 152.377 20.8898 152.377 18.8573C152.377 16.8248 151.698 15.2439 150.453 13.776C149.094 12.421 147.509 11.7435 145.472 11.7435C143.434 11.7435 141.849 12.421 140.49 13.776C139.245 15.131 138.566 16.8248 138.566 18.8573C138.566 20.8898 139.245 22.5836 140.49 23.9386C141.849 25.2936 143.434 25.9711 145.472 25.9711Z" fill="#383838"/>
<path d="M182.717 18.8573C182.717 15.8085 183.736 13.2114 185.887 10.953C188.038 8.80758 190.755 7.67841 193.925 7.67841C197.094 7.67841 199.811 8.80758 201.962 10.953C204.113 13.0985 205.132 15.6956 205.132 18.8573C205.132 22.019 204.113 24.6161 201.962 26.7616C199.925 28.907 197.207 30.0362 193.925 30.0362C190.641 30.0362 187.925 28.907 185.887 26.7616C183.849 24.6161 182.717 21.9061 182.717 18.8573ZM200.83 18.8573C200.83 16.9377 200.151 15.2439 198.792 13.8889C197.547 12.421 195.849 11.7435 193.925 11.7435C192 11.7435 190.415 12.421 189.056 13.8889C187.698 15.2439 187.132 16.9377 187.132 18.8573C187.132 20.7769 187.811 22.4707 189.056 23.9386C190.415 25.2937 192 25.9712 193.925 25.9712C195.849 25.9712 197.434 25.2937 198.792 23.9386C200.151 22.4707 200.83 20.7769 200.83 18.8573Z" fill="#383838"/>
<path d="M241.585 11.1789V2.71004C241.585 1.2421 242.83 0 244.302 0H246V28.0037C246 28.7941 245.094 29.2458 244.528 28.6812L241.698 26.4229C239.887 28.6812 237.509 29.9233 234.566 29.9233C231.623 29.9233 228.906 28.9071 226.981 26.7616C224.943 24.6162 223.925 21.9061 223.925 18.8574C223.925 15.8085 224.943 13.0985 226.981 10.9531C229.019 8.80762 231.509 7.67845 234.566 7.67845C237.396 7.79135 239.774 8.92056 241.585 11.1789ZM241.925 18.8574C241.925 16.8248 241.245 15.244 240 13.776C238.755 12.421 237.057 11.7435 235.019 11.7435C232.981 11.7435 231.396 12.421 230.038 13.776C228.792 15.131 228.113 16.8248 228.113 18.8574C228.113 20.8899 228.792 22.5837 230.038 23.9387C231.283 25.2937 232.981 25.9712 235.019 25.9712C237.057 25.9712 238.641 25.2937 240 23.9387C241.359 22.5837 241.925 20.8899 241.925 18.8574Z" fill="#383838"/>
<path d="M126.226 10.5014L126.113 11.2919C124.189 9.03348 121.811 7.79138 118.868 7.79138C115.924 7.79138 113.208 8.80765 111.283 10.9531C109.245 12.9856 108.339 15.6957 108.339 18.8574C108.339 22.0191 109.358 24.7291 111.283 26.8746C113.321 29.02 115.811 30.1492 118.868 30.1492C121.925 30.1492 124.189 29.02 126.113 26.7617V29.5846C126.113 32.6333 123.623 35.1177 120.566 35.1177H111.736C111.17 35.1177 110.943 35.7952 111.396 36.1338L114.566 38.7311C114.906 39.0697 115.472 39.1825 115.924 39.1825H120.679C126 39.1825 130.302 34.8919 130.302 29.5846V8.24308H128.83C127.585 8.24308 126.453 9.25932 126.226 10.5014ZM124.415 23.9387C123.057 25.2937 121.472 25.9712 119.434 25.9712C117.396 25.9712 115.811 25.2937 114.453 23.9387C113.208 22.5837 112.528 20.8899 112.528 18.8574C112.528 16.8249 113.208 15.1311 114.453 13.7761C115.698 12.421 117.396 11.7435 119.434 11.7435C121.359 11.7435 123.057 12.421 124.415 13.7761C125.66 15.1311 126.34 16.8249 126.34 18.8574C126.34 20.8899 125.66 22.5837 124.415 23.9387Z" fill="#383838"/>
<path d="M222.226 7.79138H216.566C212.604 7.79138 209.434 10.9531 209.434 14.9052V29.9234H213.962L213.849 15.8086C213.849 13.7761 215.434 12.1952 217.359 12.1952L220.755 12.0823L222.906 9.25932C223.472 8.58182 223.019 7.79138 222.226 7.79138Z" fill="#383838"/>
<path d="M63.0565 18.8573L49.8114 8.9205C49.2453 8.46883 48.3396 8.9205 48.3396 9.598V26.4228C48.3396 26.9874 48.6792 27.552 49.2453 27.8908L51.8492 29.3587C52.302 29.5846 52.8681 29.2458 52.8681 28.7941V16.7119L61.1319 22.9224L63.0565 24.3903L64.9811 22.9224L73.2453 16.7119V28.907C73.2453 29.3587 73.8114 29.6975 74.2642 29.4716L76.8678 28.0037C77.4338 27.665 77.7735 27.1003 77.7735 26.5357V9.598C77.7735 8.8076 76.8678 8.46883 76.302 8.9205L63.0565 18.8573Z" fill="#383838"/>
<path d="M182.264 8.24304H164.377C163.924 8.24304 163.585 8.46888 163.358 8.80764L161.321 11.5177C161.094 11.8564 161.321 12.421 161.774 12.421H173.774L160.415 30.0363H178.302C178.755 30.0363 179.094 29.8104 179.321 29.4717L181.358 26.7616C181.585 26.4229 181.358 25.8583 180.906 25.8583H168.793L182.264 8.24304Z" fill="#383838"/>
<path d="M25.3585 30.4879V34.5529L17.7736 40.3118V34.1011L23.6603 29.6974C24.1132 29.3587 24.7924 29.4716 25.132 29.9233C25.2452 30.0362 25.3585 30.262 25.3585 30.4879Z" fill="#1AAB75"/>
<path d="M17.7736 40.3118L10.0754 34.5529V30.4879C10.0754 29.9233 10.5283 29.4716 11.2075 29.4716C11.434 29.4716 11.6603 29.5846 11.7736 29.6975L17.6604 34.1011L17.7736 40.3118Z" fill="#1D8F4E"/>
<path d="M30.4528 2.0325V5.7588C30.4528 5.87174 30.3396 5.98464 30.3396 6.09757L17.7736 15.4698V9.37218L28.5283 1.24208C28.9811 0.790402 29.6603 0.790402 30.1132 1.24208C30.3396 1.46791 30.4528 1.69375 30.4528 2.0325Z" fill="#EA589B"/>
<path d="M16.9811 21.4544C16.9811 21.2286 16.8679 21.0028 16.6415 20.8898L3.16981 10.7272C2.26415 10.1626 0.905662 10.3884 0.339624 11.4047C0.113208 11.7435 0 12.0822 0 12.421V27.1004L5.09435 30.8267V19.6477C5.09435 19.309 5.43396 19.0832 5.77359 19.0832C5.88681 19.0832 5.99999 19.0832 6.1132 19.1961L15.8491 26.5358C16.1887 26.7616 16.6415 26.7616 16.8679 26.4229C16.9811 26.3099 16.9811 26.197 16.9811 25.9712V21.4544Z" fill="url(#paint0_linear_221_103)"/>
<path d="M32.1511 10.7273L18.6794 20.8899C18.4529 21.0028 18.3397 21.2287 18.3397 21.4545V25.8583C18.3397 26.197 18.6794 26.5358 19.019 26.5358C19.1322 26.5358 19.3586 26.5358 19.4718 26.4229L29.2076 19.0832C29.4341 18.8574 29.8869 18.9703 30.1133 19.1961C30.2265 19.3091 30.2265 19.422 30.2265 19.5349V30.8267L35.2077 27.1004V12.421C35.2077 11.2918 34.1888 10.3885 33.0567 10.5014C32.8303 10.5014 32.4907 10.6143 32.1511 10.7273Z" fill="url(#paint1_linear_221_103)"/>
<path d="M6.90566 1.12916C6.45284 0.790401 5.66039 0.903321 5.32075 1.35499C5.20754 1.58083 5.09436 1.80667 5.09436 2.0325V9.93678C5.09436 10.2755 5.20754 10.5014 5.43396 10.7272L8.94341 13.4373C9.28302 13.6631 9.62265 13.5502 9.84908 13.2114C9.84908 13.0985 9.96226 12.9856 9.96226 12.8727V10.6143C9.96226 10.3885 10.1887 10.1626 10.4151 10.1626C10.4906 10.1626 10.566 10.2003 10.6415 10.2755L17.6604 15.4698V9.37218L6.90566 1.12916Z" fill="#E62D47"/>
</g>
</g>
<defs>
<filter id="filter0_d_221_103" x="0" y="0" width="246" height="41.1022" filterUnits="userSpaceOnUse" color-interpolation-filters="sRGB">
<feFlood flood-opacity="0" result="BackgroundImageFix"/>
<feColorMatrix in="SourceAlpha" type="matrix" values="0 0 0 0 0 0 0 0 0 0 0 0 0 0 0 0 0 0 127 0" result="hardAlpha"/>
<feOffset/>
<feComposite in2="hardAlpha" operator="out"/>
<feColorMatrix type="matrix" values="0 0 0 0 0 0 0 0 0 0 0 0 0 0 0 0 0 0 0.25 0"/>
<feBlend mode="normal" in2="BackgroundImageFix" result="effect1_dropShadow_221_103"/>
<feBlend mode="normal" in="SourceGraphic" in2="effect1_dropShadow_221_103" result="shape"/>
</filter>
<linearGradient id="paint0_linear_221_103" x1="0.113208" y1="20.6301" x2="17.0038" y2="20.6301" gradientUnits="userSpaceOnUse">
<stop stop-color="#FDC41A"/>
<stop offset="1" stop-color="#F6A21A"/>
</linearGradient>
<linearGradient id="paint1_linear_221_103" x1="18.4303" y1="20.6641" x2="35.3209" y2="20.6641" gradientUnits="userSpaceOnUse">
<stop stop-color="#2C4B9B"/>
<stop offset="1" stop-color="#3352A0"/>
</linearGradient>
</defs>
</svg>
